Ramona and Beezus (2010) 1080p AC3+DTS NLSubs-DMT

Verenigde Staten

Komedie / Familie

104 minuten

geregisseerd door Elizabeth Allen

met Joey King, Selena Gomez en Josh Duhamel

Ramona?s levendige fantasie, grenzeloze energie en talloze streken worden op de proef gesteld wanneer
ze met haar familie voor een grote uitdaging staat. Ondertussen moet Ramona omgaan met haar oudere zus
Beezus en de knipperlichtrelatie tussen haar tante Bea en haar vriend.


Plot

Follows the misadventures of young grade schooler Ramona Quimby from Beverly Cleary's popular children's book series.
 
http://www.youtube.com/watch?v=gbdCsAQ9GbU

MM:    http://www.moviemeter.nl/film/61554

IMDB:    http://www.imdb.com/title/tt0493949/

INFO

Release name.......: Ramona.And.Beezus.2010.1080p.BluRay.x264-QSP
Source.............: BluRay
Resolution.........: 1920 x 1080 (WS)
Video bitrate......: 9257 Kbps avg
Framerate..........: 23.97 fps 
Audio..............: Engels AC3 @ 640 Kbps en DTS 5.1 @ 1510 Kbps
Subtitles..........: NL cust. door Fast Gollums Twilight Release Team, geheel op audio, topklus team!!!
Controle...........: Dejevu
Bewerking..........: Dejavu


Thankst to Fast Gollums Twilight Release Team 

Enjoy


Player

General
Complete name                    : Ramona.and.Beezus.2010.1080p.AC3.DTS.NLSubs-DMT.mkv
Format                           : Matroska
File size                        : 8.40 GiB
Duration                         : 1h 43mn
Overall bit rate                 : 11.6 Mbps
Encoded date                     : UTC 2010-11-04 09:46:41
Writing application              : mkvmerge v3.1.0 ('Happy up here') built on Jan 19 2010 12:09:24
Writing library                  : libebml v0.7.9 + libmatroska v0.8.1

Video
ID                               : 1
Format                           : AVC
Format/Info                      : Advanced Video Codec
Format profile                   : High@L4.1
Format settings, CABAC           : Yes
Format settings, ReFrames        : 5 frames
Muxing mode                      : Container profile=Unknown@4.1
Codec ID                         : V_MPEG4/ISO/AVC
Duration                         : 1h 43mn
Bit rate                         : 9 477 Kbps
Width                            : 1 920 pixels
Height                           : 800 pixels
Display aspect ratio             : 2.40:1
Frame rate                       : 23.976 fps
Color space                      : YUV
Chroma subsampling               : 4:2:0
Bit depth                        : 8 bits
Scan type                        : Progressive
Bits/(Pixel*Frame)               : 0.257
Stream size                      : 6.68 GiB (80%)
Writing library                  : x264 core 106 r1732 b20059a
Encoding settings                : cabac=1 / ref=5 / deblock=1:-1:-1 / analyse=0x3:0x113 / 
me=umh / subme=7 / psy=1 / psy_rd=1.00:0.00 / mixed_ref=1 / me_range=16 / chroma_me=1 / 
trellis=1 / 8x8dct=1 / cqm=0 / deadzone=21,11 / fast_pskip=1 / chroma_qp_offset=-2 / 
threads=12 / sliced_threads=0 / nr=0 / decimate=1 / interlaced=0 / constrained_intra=0 / 
bframes=3 / b_pyramid=2 / b_adapt=2 / b_bias=0 / direct=3 / weightb=1 / open_gop=0 / 
weightp=2 / keyint=250 / keyint_min=23 / scenecut=40 / intra_refresh=0 / rc_lookahead=40 / 
rc=2pass / mbtree=1 / bitrate=9477 / ratetol=1.0 / qcomp=0.60 / qpmin=10 / qpmax=51 / 
qpstep=4 / cplxblur=20.0 / qblur=0.5 / vbv_maxrate=50000 / vbv_bufsize=50000 / 
ip_ratio=1.40 / aq=1:1.00 / nal_hrd=none
Language                         : English

Audio #1
ID                               : 2
Format                           : AC-3
Format/Info                      : Audio Coding 3
Mode extension                   : CM (complete main)
Codec ID                         : A_AC3
Duration                         : 1h 43mn
Bit rate mode                    : Constant
Bit rate                         : 640 Kbps
Channel(s)                       : 6 channels
Channel positions                : Front: L C R, Side: L R, LFE
Sampling rate                    : 48.0 KHz
Bit depth                        : 16 bits
Stream size                      : 474 MiB (6%)
Language                         : English

Audio #2
ID                               : 3
Format                           : DTS
Format/Info                      : Digital Theater Systems
Codec ID                         : A_DTS
Duration                         : 1h 43mn
Bit rate mode                    : Constant
Bit rate                         : 1 510 Kbps
Channel(s)                       : 6 channels
Channel positions                : Front: L C R, Side: L R, LFE
Sampling rate                    : 48.0 KHz
Bit depth                        : 24 bits
Stream size                      : 1.09 GiB (13%)
Language                         : English

Text
ID                               : 4
Format                           : UTF-8
Codec ID                         : S_TEXT/UTF8
Codec ID/Info                    : UTF-8 Plain Text
Language                         : Dutch

